# xmcd
#
# Track frame offsets: 
#        150
#        17732
#        35500
#        54813
#        70933
#
# Disc length: 1162 seconds
#
# Revision: 0
# Processed by: cddbd v1.5.2PL0 Copyright (c) Steve Scherf et al.
# Submitted via: ExactAudioCopy v1.0b1
#
DISCID=37048805
DTITLE=Boy - Hungry Beast
DYEAR=1900
DGENRE=Acoustic
TTITLE0=Drive Darling
TTITLE1=Zapping
TTITLE2=July
TTITLE3=Skin
TTITLE4=Fred Jones, Pt 2
EXTD=
EXTT0=
EXTT1=
EXTT2=
EXTT3=
EXTT4=
PLAYORDER=
